<?xml version="1.0" encoding="UTF-8" standalone="no"?>
<!DOCTYPE svg PUBLIC "-//W3C//DTD SVG 1.1//EN"
 "http://www.w3.org/Graphics/SVG/1.1/DTD/svg11.dtd">
<!-- Generated by graphviz version 2.38.0 (20140413.2041)
 -->
<!-- Title: G Pages: 1 -->
<svg width="523pt" height="1064pt"
 viewBox="0.00 0.00 522.77 1064.00" xmlns="http://www.w3.org/2000/svg" xmlns:xlink="http://www.w3.org/1999/xlink">
<g id="graph0" class="graph" transform="scale(1 1) rotate(0) translate(4 1060)">
<title>G</title>
<polygon fill="white" stroke="none" points="-4,4 -4,-1060 518.773,-1060 518.773,4 -4,4"/>
<g id="clust1" class="cluster"><title>cluster_Global</title>
<path fill="none" stroke="gray" d="M109.386,-152C109.386,-152 494.773,-152 494.773,-152 500.773,-152 506.773,-158 506.773,-164 506.773,-164 506.773,-1036 506.773,-1036 506.773,-1042 500.773,-1048 494.773,-1048 494.773,-1048 109.386,-1048 109.386,-1048 103.386,-1048 97.3864,-1042 97.3864,-1036 97.3864,-1036 97.3864,-164 97.3864,-164 97.3864,-158 103.386,-152 109.386,-152"/>
<text text-anchor="middle" x="302.08" y="-1035.2" font-family="Times,serif" font-size="11.00" fill="gray">Global</text>
</g>
<g id="clust2" class="cluster"><title>cluster_\nicklas</title>
<path fill="none" stroke="gray" d="M117.386,-160C117.386,-160 486.773,-160 486.773,-160 492.773,-160 498.773,-166 498.773,-172 498.773,-172 498.773,-1008 498.773,-1008 498.773,-1014 492.773,-1020 486.773,-1020 486.773,-1020 117.386,-1020 117.386,-1020 111.386,-1020 105.386,-1014 105.386,-1008 105.386,-1008 105.386,-172 105.386,-172 105.386,-166 111.386,-160 117.386,-160"/>
<text text-anchor="middle" x="302.08" y="-1007.2" font-family="Times,serif" font-size="11.00" fill="gray">nicklas</text>
</g>
<g id="clust3" class="cluster"><title>cluster_\nicklas\Connect</title>
<path fill="none" stroke="gray" d="M125.386,-542C125.386,-542 462.273,-542 462.273,-542 468.273,-542 474.273,-548 474.273,-554 474.273,-554 474.273,-980 474.273,-980 474.273,-986 468.273,-992 462.273,-992 462.273,-992 125.386,-992 125.386,-992 119.386,-992 113.386,-986 113.386,-980 113.386,-980 113.386,-554 113.386,-554 113.386,-548 119.386,-542 125.386,-542"/>
<text text-anchor="middle" x="293.83" y="-979.2" font-family="Times,serif" font-size="11.00" fill="gray">Connect</text>
</g>
<g id="clust4" class="cluster"><title>cluster_\nicklas\Navbar</title>
<path fill="none" stroke="gray" d="M406.273,-462C406.273,-462 455.273,-462 455.273,-462 461.273,-462 467.273,-468 467.273,-474 467.273,-474 467.273,-522 467.273,-522 467.273,-528 461.273,-534 455.273,-534 455.273,-534 406.273,-534 406.273,-534 400.273,-534 394.273,-528 394.273,-522 394.273,-522 394.273,-474 394.273,-474 394.273,-468 400.273,-462 406.273,-462"/>
<text text-anchor="middle" x="430.773" y="-521.2" font-family="Times,serif" font-size="11.00" fill="gray">Navbar</text>
</g>
<g id="clust5" class="cluster"><title>cluster_\nicklas\Textfilter</title>
<path fill="none" stroke="gray" d="M382.773,-248C382.773,-248 478.773,-248 478.773,-248 484.773,-248 490.773,-254 490.773,-260 490.773,-260 490.773,-362 490.773,-362 490.773,-368 484.773,-374 478.773,-374 478.773,-374 382.773,-374 382.773,-374 376.773,-374 370.773,-368 370.773,-362 370.773,-362 370.773,-260 370.773,-260 370.773,-254 376.773,-248 382.773,-248"/>
<text text-anchor="middle" x="430.773" y="-361.2" font-family="Times,serif" font-size="11.00" fill="gray">Textfilter</text>
</g>
<g id="clust6" class="cluster"><title>cluster_\nicklas\Session</title>
<path fill="none" stroke="gray" d="M402.773,-382C402.773,-382 458.773,-382 458.773,-382 464.773,-382 470.773,-388 470.773,-394 470.773,-394 470.773,-442 470.773,-442 470.773,-448 464.773,-454 458.773,-454 458.773,-454 402.773,-454 402.773,-454 396.773,-454 390.773,-448 390.773,-442 390.773,-442 390.773,-394 390.773,-394 390.773,-388 396.773,-382 402.773,-382"/>
<text text-anchor="middle" x="430.773" y="-441.2" font-family="Times,serif" font-size="11.00" fill="gray">Session</text>
</g>
<g id="clust7" class="cluster"><title>cluster_\nicklas\App</title>
<path fill="none" stroke="gray" d="M407.773,-168C407.773,-168 453.773,-168 453.773,-168 459.773,-168 465.773,-174 465.773,-180 465.773,-180 465.773,-228 465.773,-228 465.773,-234 459.773,-240 453.773,-240 453.773,-240 407.773,-240 407.773,-240 401.773,-240 395.773,-234 395.773,-228 395.773,-228 395.773,-180 395.773,-180 395.773,-174 401.773,-168 407.773,-168"/>
<text text-anchor="middle" x="430.773" y="-227.2" font-family="Times,serif" font-size="11.00" fill="gray">App</text>
</g>
<!-- \\nicklas\\Connect\\Blog -->
<g id="node1" class="node"><title>\\nicklas\\Connect\\Blog</title>
<polygon fill="none" stroke="black" points="457.773,-964 403.773,-964 403.773,-928 457.773,-928 457.773,-964"/>
<text text-anchor="middle" x="430.773" y="-943.2" font-family="Courier,monospace" font-size="11.00">Blog</text>
</g>
<!-- \\nicklas\\Connect\\Connect -->
<g id="node4" class="node"><title>\\nicklas\\Connect\\Connect</title>
<polygon fill="none" stroke="black" points="185.386,-775 121.386,-775 121.386,-739 185.386,-739 185.386,-775"/>
<text text-anchor="middle" x="153.386" y="-754.2" font-family="Courier,monospace" font-size="11.00">Connect</text>
</g>
<!-- \\nicklas\\Connect\\Blog&#45;&gt;\\nicklas\\Connect\\Connect -->
<g id="edge1" class="edge"><title>\\nicklas\\Connect\\Blog&#45;&gt;\\nicklas\\Connect\\Connect</title>
<path fill="none" stroke="black" d="M403.61,-935.462C393.144,-930.881 381.136,-925.155 370.773,-919 299.428,-876.629 223.408,-815.505 183.208,-781.747"/>
<polygon fill="none" stroke="black" points="185.322,-778.951 175.423,-775.174 180.806,-784.3 185.322,-778.951"/>
</g>
<!-- \\Anax\\Common\\AppInjectableInterface -->
<g id="node15" class="node"><title>\\Anax\\Common\\AppInjectableInterface</title>
<ellipse fill="none" stroke="black" cx="153.386" cy="-126" rx="153.273" ry="18"/>
<text text-anchor="middle" x="153.386" y="-122.3" font-family="Times,serif" font-size="14.00" fill="gray">\Anax\Common\AppInjectableInterface</text>
</g>
<!-- \\nicklas\\Connect\\Blog&#45;&gt;\\Anax\\Common\\AppInjectableInterface -->
<g id="edge2" class="edge"><title>\\nicklas\\Connect\\Blog&#45;&gt;\\Anax\\Common\\AppInjectableInterface</title>
<path fill="none" stroke="black" stroke-dasharray="1,5" d="M403.571,-940.015C391.804,-935.999 378.791,-929.46 370.773,-919 266.31,-782.727 350.972,-703.919 306.773,-538 267.093,-389.047 195.076,-218.471 166.521,-153.271"/>
<polygon fill="none" stroke="black" points="169.708,-151.824 162.477,-144.08 163.301,-154.643 169.708,-151.824"/>
</g>
<!-- \\Anax\\Common\\ConfigureInterface -->
<g id="node16" class="node"><title>\\Anax\\Common\\ConfigureInterface</title>
<ellipse fill="none" stroke="black" cx="153.386" cy="-72" rx="139.175" ry="18"/>
<text text-anchor="middle" x="153.386" y="-68.3" font-family="Times,serif" font-size="14.00" fill="gray">\Anax\Common\ConfigureInterface</text>
</g>
<!-- \\nicklas\\Connect\\Blog&#45;&gt;\\Anax\\Common\\ConfigureInterface -->
<g id="edge3" class="edge"><title>\\nicklas\\Connect\\Blog&#45;&gt;\\Anax\\Common\\ConfigureInterface</title>
<path fill="none" stroke="black" stroke-dasharray="1,5" d="M403.762,-940.52C391.738,-936.596 378.449,-929.989 370.773,-919 266.103,-769.162 429.566,-234.385 306.773,-99 301.561,-93.2534 295.586,-88.4597 289.086,-84.477"/>
<polygon fill="none" stroke="black" points="290.384,-81.2003 279.92,-79.5354 287.062,-87.3618 290.384,-81.2003"/>
</g>
<!-- \\nicklas\\Connect\\Page -->
<g id="node2" class="node"><title>\\nicklas\\Connect\\Page</title>
<polygon fill="none" stroke="black" points="457.773,-910 403.773,-910 403.773,-874 457.773,-874 457.773,-910"/>
<text text-anchor="middle" x="430.773" y="-889.2" font-family="Courier,monospace" font-size="11.00">Page</text>
</g>
<!-- \\nicklas\\Connect\\Page&#45;&gt;\\nicklas\\Connect\\Connect -->
<g id="edge7" class="edge"><title>\\nicklas\\Connect\\Page&#45;&gt;\\nicklas\\Connect\\Connect</title>
<path fill="none" stroke="black" d="M403.545,-880.226C393.286,-875.562 381.443,-870.103 370.773,-865 308.841,-835.384 237.751,-799.544 194.465,-777.51"/>
<polygon fill="none" stroke="black" points="195.899,-774.313 185.4,-772.891 192.721,-780.55 195.899,-774.313"/>
</g>
<!-- \\nicklas\\Connect\\Page&#45;&gt;\\Anax\\Common\\AppInjectableInterface -->
<g id="edge8" class="edge"><title>\\nicklas\\Connect\\Page&#45;&gt;\\Anax\\Common\\AppInjectableInterface</title>
<path fill="none" stroke="black" stroke-dasharray="1,5" d="M403.695,-885.919C391.956,-881.881 378.931,-875.351 370.773,-865 279.107,-748.689 346.811,-680.576 306.773,-538 265.097,-389.594 194.236,-218.7 166.256,-153.343"/>
<polygon fill="none" stroke="black" points="169.46,-151.935 162.296,-144.13 163.029,-154.699 169.46,-151.935"/>
</g>
<!-- \\nicklas\\Connect\\Page&#45;&gt;\\Anax\\Common\\ConfigureInterface -->
<g id="edge9" class="edge"><title>\\nicklas\\Connect\\Page&#45;&gt;\\Anax\\Common\\ConfigureInterface</title>
<path fill="none" stroke="black" stroke-dasharray="1,5" d="M403.485,-886.403C391.547,-882.462 378.415,-875.876 370.773,-865 272.57,-725.235 421.875,-225.211 306.773,-99 301.545,-93.2677 295.558,-88.485 289.049,-84.5107"/>
<polygon fill="none" stroke="black" points="290.338,-81.23 279.873,-79.5789 287.024,-87.3959 290.338,-81.23"/>
</g>
<!-- \\nicklas\\Connect\\Webshop -->
<g id="node3" class="node"><title>\\nicklas\\Connect\\Webshop</title>
<polygon fill="none" stroke="black" points="462.773,-856 398.773,-856 398.773,-820 462.773,-820 462.773,-856"/>
<text text-anchor="middle" x="430.773" y="-835.2" font-family="Courier,monospace" font-size="11.00">Webshop</text>
</g>
<!-- \\nicklas\\Connect\\Webshop&#45;&gt;\\nicklas\\Connect\\Connect -->
<g id="edge10" class="edge"><title>\\nicklas\\Connect\\Webshop&#45;&gt;\\nicklas\\Connect\\Connect</title>
<path fill="none" stroke="black" d="M398.718,-828.866C348.927,-814.221 251.201,-785.476 195.618,-769.127"/>
<polygon fill="none" stroke="black" points="196.332,-765.689 185.75,-766.225 194.356,-772.405 196.332,-765.689"/>
</g>
<!-- \\nicklas\\Connect\\Webshop&#45;&gt;\\Anax\\Common\\AppInjectableInterface -->
<g id="edge11" class="edge"><title>\\nicklas\\Connect\\Webshop&#45;&gt;\\Anax\\Common\\AppInjectableInterface</title>
<path fill="none" stroke="black" stroke-dasharray="1,5" d="M398.696,-829.852C388.471,-825.744 377.908,-819.717 370.773,-811 291.836,-714.564 342.68,-657.338 306.773,-538 262.359,-390.39 193.083,-219.036 165.892,-153.449"/>
<polygon fill="none" stroke="black" points="169.118,-152.092 162.046,-144.202 162.655,-154.78 169.118,-152.092"/>
</g>
<!-- \\nicklas\\Connect\\Webshop&#45;&gt;\\Anax\\Common\\ConfigureInterface -->
<g id="edge12" class="edge"><title>\\nicklas\\Connect\\Webshop&#45;&gt;\\Anax\\Common\\ConfigureInterface</title>
<path fill="none" stroke="black" stroke-dasharray="1,5" d="M398.611,-830.627C388.122,-826.572 377.408,-820.381 370.773,-811 279.035,-681.305 414.188,-216.041 306.773,-99 301.527,-93.2842 295.526,-88.5142 289.007,-84.5496"/>
<polygon fill="none" stroke="black" points="290.286,-81.2643 279.818,-79.6291 286.981,-87.4352 290.286,-81.2643"/>
</g>
<!-- \\nicklas\\Connect\\Content -->
<g id="node5" class="node"><title>\\nicklas\\Connect\\Content</title>
<polygon fill="none" stroke="black" points="462.773,-802 398.773,-802 398.773,-766 462.773,-766 462.773,-802"/>
<text text-anchor="middle" x="430.773" y="-781.2" font-family="Courier,monospace" font-size="11.00">Content</text>
</g>
<!-- \\nicklas\\Connect\\Content&#45;&gt;\\nicklas\\Connect\\Connect -->
<g id="edge13" class="edge"><title>\\nicklas\\Connect\\Content&#45;&gt;\\nicklas\\Connect\\Connect</title>
<path fill="none" stroke="black" d="M398.718,-780.955C349.03,-776.084 251.606,-766.532 195.964,-761.076"/>
<polygon fill="none" stroke="black" points="196.044,-757.568 185.75,-760.075 195.361,-764.534 196.044,-757.568"/>
</g>
<!-- \\nicklas\\Connect\\Content&#45;&gt;\\Anax\\Common\\AppInjectableInterface -->
<g id="edge14" class="edge"><title>\\nicklas\\Connect\\Content&#45;&gt;\\Anax\\Common\\AppInjectableInterface</title>
<path fill="none" stroke="black" stroke-dasharray="1,5" d="M398.649,-775.509C388.543,-771.385 378.067,-765.436 370.773,-757 304.446,-680.295 338.603,-634.279 306.773,-538 258.387,-391.644 191.412,-219.563 165.364,-153.616"/>
<polygon fill="none" stroke="black" points="168.618,-152.327 161.684,-144.317 162.11,-154.903 168.618,-152.327"/>
</g>
<!-- \\nicklas\\Connect\\Content&#45;&gt;\\Anax\\Common\\ConfigureInterface -->
<g id="edge15" class="edge"><title>\\nicklas\\Connect\\Content&#45;&gt;\\Anax\\Common\\ConfigureInterface</title>
<path fill="none" stroke="black" stroke-dasharray="1,5" d="M398.649,-776.601C388.163,-772.543 377.442,-766.356 370.773,-757 285.497,-637.371 406.504,-206.874 306.773,-99 301.506,-93.3034 295.489,-88.5483 288.957,-84.5949"/>
<polygon fill="none" stroke="black" points="290.225,-81.3044 279.754,-79.6877 286.931,-87.4812 290.225,-81.3044"/>
</g>
<!-- \\nicklas\\Connect\\Admin -->
<g id="node6" class="node"><title>\\nicklas\\Connect\\Admin</title>
<polygon fill="none" stroke="black" points="457.773,-748 403.773,-748 403.773,-712 457.773,-712 457.773,-748"/>
<text text-anchor="middle" x="430.773" y="-727.2" font-family="Courier,monospace" font-size="11.00">Admin</text>
</g>
<!-- \\nicklas\\Connect\\Admin&#45;&gt;\\nicklas\\Connect\\Connect -->
<g id="edge16" class="edge"><title>\\nicklas\\Connect\\Admin&#45;&gt;\\nicklas\\Connect\\Connect</title>
<path fill="none" stroke="black" d="M403.368,-732.589C355.335,-737.298 253.337,-747.298 195.912,-752.929"/>
<polygon fill="none" stroke="black" points="195.342,-749.468 185.732,-753.927 196.025,-756.434 195.342,-749.468"/>
</g>
<!-- \\nicklas\\Connect\\Admin&#45;&gt;\\Anax\\Common\\AppInjectableInterface -->
<g id="edge17" class="edge"><title>\\nicklas\\Connect\\Admin&#45;&gt;\\Anax\\Common\\AppInjectableInterface</title>
<path fill="none" stroke="black" stroke-dasharray="1,5" d="M403.534,-722.965C392.186,-718.776 379.528,-712.394 370.773,-703 365.711,-697.569 206.634,-267.458 164.528,-153.468"/>
<polygon fill="none" stroke="black" points="167.79,-152.199 161.043,-144.031 161.224,-154.625 167.79,-152.199"/>
</g>
<!-- \\nicklas\\Connect\\Admin&#45;&gt;\\Anax\\Common\\ConfigureInterface -->
<g id="edge18" class="edge"><title>\\nicklas\\Connect\\Admin&#45;&gt;\\Anax\\Common\\ConfigureInterface</title>
<path fill="none" stroke="black" stroke-dasharray="1,5" d="M403.59,-724.328C391.677,-720.37 378.535,-713.791 370.773,-703 291.954,-593.43 398.825,-197.713 306.773,-99 301.482,-93.3261 295.445,-88.5887 288.9,-84.6486"/>
<polygon fill="none" stroke="black" points="290.154,-81.3519 279.68,-79.757 286.873,-87.5355 290.154,-81.3519"/>
</g>
<!-- \\nicklas\\Connect\\Customer -->
<g id="node7" class="node"><title>\\nicklas\\Connect\\Customer</title>
<polygon fill="none" stroke="black" points="466.273,-694 395.273,-694 395.273,-658 466.273,-658 466.273,-694"/>
<text text-anchor="middle" x="430.773" y="-673.2" font-family="Courier,monospace" font-size="11.00">Customer</text>
</g>
<!-- \\nicklas\\Connect\\Customer&#45;&gt;\\nicklas\\Connect\\Connect -->
<g id="edge19" class="edge"><title>\\nicklas\\Connect\\Customer&#45;&gt;\\nicklas\\Connect\\Connect</title>
<path fill="none" stroke="black" d="M395.174,-686.177C344.312,-701.137 249.537,-729.013 195.296,-744.967"/>
<polygon fill="none" stroke="black" points="194.265,-741.622 185.659,-747.802 196.241,-748.337 194.265,-741.622"/>
</g>
<!-- \\nicklas\\Connect\\Customer&#45;&gt;\\Anax\\Common\\AppInjectableInterface -->
<g id="edge20" class="edge"><title>\\nicklas\\Connect\\Customer&#45;&gt;\\Anax\\Common\\AppInjectableInterface</title>
<path fill="none" stroke="black" stroke-dasharray="1,5" d="M395.168,-665.322C386.36,-661.311 377.495,-655.975 370.773,-649 333.525,-610.352 202.23,-256.69 164.56,-153.897"/>
<polygon fill="none" stroke="black" points="167.741,-152.405 161.017,-144.217 161.167,-154.81 167.741,-152.405"/>
</g>
<!-- \\nicklas\\Connect\\Customer&#45;&gt;\\Anax\\Common\\ConfigureInterface -->
<g id="edge21" class="edge"><title>\\nicklas\\Connect\\Customer&#45;&gt;\\Anax\\Common\\ConfigureInterface</title>
<path fill="none" stroke="black" stroke-dasharray="1,5" d="M395.043,-667.008C385.798,-662.971 376.735,-657.2 370.773,-649 226.041,-449.965 475.533,-278.115 306.773,-99 301.267,-93.1563 294.97,-88.3089 288.142,-84.305"/>
<polygon fill="none" stroke="black" points="289.716,-81.1784 279.228,-79.6728 286.488,-87.3898 289.716,-81.1784"/>
</g>
<!-- \\nicklas\\Connect\\Errand -->
<g id="node8" class="node"><title>\\nicklas\\Connect\\Errand</title>
<polygon fill="none" stroke="black" points="459.273,-640 402.273,-640 402.273,-604 459.273,-604 459.273,-640"/>
<text text-anchor="middle" x="430.773" y="-619.2" font-family="Courier,monospace" font-size="11.00">Errand</text>
</g>
<!-- \\nicklas\\Connect\\Errand&#45;&gt;\\nicklas\\Connect\\Connect -->
<g id="edge22" class="edge"><title>\\nicklas\\Connect\\Errand&#45;&gt;\\nicklas\\Connect\\Connect</title>
<path fill="none" stroke="black" d="M402.069,-634.445C392.161,-638.957 380.935,-644.14 370.773,-649 308.841,-678.616 237.751,-714.456 194.465,-736.49"/>
<polygon fill="none" stroke="black" points="192.721,-733.45 185.4,-741.109 195.899,-739.687 192.721,-733.45"/>
</g>
<!-- \\nicklas\\Connect\\Errand&#45;&gt;\\Anax\\Common\\AppInjectableInterface -->
<g id="edge23" class="edge"><title>\\nicklas\\Connect\\Errand&#45;&gt;\\Anax\\Common\\AppInjectableInterface</title>
<path fill="none" stroke="black" stroke-dasharray="1,5" d="M402.054,-613.974C391.236,-609.737 379.389,-603.589 370.773,-595 237.975,-462.613 177.747,-233.574 160.14,-154.114"/>
<polygon fill="none" stroke="black" points="163.56,-153.371 158.023,-144.338 156.719,-154.852 163.56,-153.371"/>
</g>
<!-- \\nicklas\\Connect\\Errand&#45;&gt;\\Anax\\Common\\ConfigureInterface -->
<g id="edge24" class="edge"><title>\\nicklas\\Connect\\Errand&#45;&gt;\\Anax\\Common\\ConfigureInterface</title>
<path fill="none" stroke="black" stroke-dasharray="1,5" d="M402.179,-615.731C390.703,-611.71 378.323,-605.248 370.773,-595 238.931,-416.051 460.203,-259.823 306.773,-99 301.231,-93.1908 294.906,-88.3698 288.057,-84.3857"/>
<polygon fill="none" stroke="black" points="289.612,-81.2498 279.12,-79.7751 286.403,-87.4706 289.612,-81.2498"/>
</g>
<!-- \\nicklas\\Connect\\Product -->
<g id="node9" class="node"><title>\\nicklas\\Connect\\Product</title>
<polygon fill="none" stroke="black" points="462.773,-586 398.773,-586 398.773,-550 462.773,-550 462.773,-586"/>
<text text-anchor="middle" x="430.773" y="-565.2" font-family="Courier,monospace" font-size="11.00">Product</text>
</g>
<!-- \\nicklas\\Connect\\Product&#45;&gt;\\nicklas\\Connect\\Connect -->
<g id="edge25" class="edge"><title>\\nicklas\\Connect\\Product&#45;&gt;\\nicklas\\Connect\\Connect</title>
<path fill="none" stroke="black" d="M398.518,-580.805C389.37,-584.949 379.49,-589.823 370.773,-595 299.428,-637.371 223.408,-698.495 183.208,-732.253"/>
<polygon fill="none" stroke="black" points="180.806,-729.7 175.423,-738.826 185.322,-735.049 180.806,-729.7"/>
</g>
<!-- \\nicklas\\Connect\\Product&#45;&gt;\\Anax\\Common\\AppInjectableInterface -->
<g id="edge26" class="edge"><title>\\nicklas\\Connect\\Product&#45;&gt;\\Anax\\Common\\AppInjectableInterface</title>
<path fill="none" stroke="black" stroke-dasharray="1,5" d="M398.642,-556.573C388.884,-551.905 378.625,-545.749 370.773,-538 252.384,-421.164 184.467,-225.792 162.409,-153.763"/>
<polygon fill="none" stroke="black" points="165.72,-152.621 159.487,-144.054 159.017,-154.639 165.72,-152.621"/>
</g>
<!-- \\nicklas\\Connect\\Product&#45;&gt;\\Anax\\Common\\ConfigureInterface -->
<g id="edge27" class="edge"><title>\\nicklas\\Connect\\Product&#45;&gt;\\Anax\\Common\\ConfigureInterface</title>
<path fill="none" stroke="black" stroke-dasharray="1,5" d="M398.52,-558.694C388.152,-554.087 377.541,-547.429 370.773,-538 255.794,-377.821 444.047,-240.539 306.773,-99 301.183,-93.2365 294.822,-88.4507 287.945,-84.4928"/>
<polygon fill="none" stroke="black" points="289.477,-81.3447 278.979,-79.9109 286.291,-87.578 289.477,-81.3447"/>
</g>
<!-- \\nicklas\\Navbar\\Navbar -->
<g id="node10" class="node"><title>\\nicklas\\Navbar\\Navbar</title>
<polygon fill="none" stroke="black" points="459.273,-506 402.273,-506 402.273,-470 459.273,-470 459.273,-506"/>
<text text-anchor="middle" x="430.773" y="-485.2" font-family="Courier,monospace" font-size="11.00">Navbar</text>
</g>
<!-- \\nicklas\\Navbar\\Navbar&#45;&gt;\\Anax\\Common\\AppInjectableInterface -->
<g id="edge4" class="edge"><title>\\nicklas\\Navbar\\Navbar&#45;&gt;\\Anax\\Common\\AppInjectableInterface</title>
<path fill="none" stroke="black" stroke-dasharray="1,5" d="M402.076,-477.554C391.508,-472.682 379.835,-466.139 370.773,-458 268.465,-366.113 194.008,-215.329 166.276,-153.628"/>
<polygon fill="none" stroke="black" points="169.338,-151.898 162.083,-144.177 162.94,-154.737 169.338,-151.898"/>
</g>
<!-- \\nicklas\\Navbar\\Navbar&#45;&gt;\\Anax\\Common\\ConfigureInterface -->
<g id="edge5" class="edge"><title>\\nicklas\\Navbar\\Navbar&#45;&gt;\\Anax\\Common\\ConfigureInterface</title>
<path fill="none" stroke="black" stroke-dasharray="1,5" d="M402.05,-480.013C390.694,-475.369 378.442,-468.335 370.773,-458 274.192,-327.849 421.435,-213.541 306.773,-99 301.026,-93.2589 294.51,-88.4974 287.489,-84.564"/>
<polygon fill="none" stroke="black" points="288.856,-81.3348 278.344,-80.0132 285.737,-87.6018 288.856,-81.3348"/>
</g>
<!-- \\nicklas\\Textfilter\\Textfilter -->
<g id="node11" class="node"><title>\\nicklas\\Textfilter\\Textfilter</title>
<polygon fill="none" stroke="black" points="472.773,-346 388.773,-346 388.773,-310 472.773,-310 472.773,-346"/>
<text text-anchor="middle" x="430.773" y="-325.2" font-family="Courier,monospace" font-size="11.00">Textfilter</text>
</g>
<!-- \\nicklas\\Textfilter\\TextException -->
<g id="node12" class="node"><title>\\nicklas\\Textfilter\\TextException</title>
<polygon fill="none" stroke="black" points="482.773,-292 378.773,-292 378.773,-256 482.773,-256 482.773,-292"/>
<text text-anchor="middle" x="430.773" y="-271.2" font-family="Courier,monospace" font-size="11.00">TextException</text>
</g>
<!-- \\Exception -->
<g id="node17" class="node"><title>\\Exception</title>
<ellipse fill="none" stroke="black" cx="153.386" cy="-18" rx="50.0912" ry="18"/>
<text text-anchor="middle" x="153.386" y="-14.3" font-family="Times,serif" font-size="14.00" fill="gray">\Exception</text>
</g>
<!-- \\nicklas\\Textfilter\\TextException&#45;&gt;\\Exception -->
<g id="edge28" class="edge"><title>\\nicklas\\Textfilter\\TextException&#45;&gt;\\Exception</title>
<path fill="none" stroke="black" d="M384.47,-255.874C379.384,-252.486 374.649,-248.548 370.773,-244 310.512,-173.289 376.773,-106.086 306.773,-45 281.31,-22.7798 244.081,-15.8766 212.796,-14.603"/>
<polygon fill="none" stroke="black" points="212.514,-11.096 202.439,-14.373 212.359,-18.0943 212.514,-11.096"/>
</g>
<!-- \\nicklas\\Session\\Session -->
<g id="node13" class="node"><title>\\nicklas\\Session\\Session</title>
<polygon fill="none" stroke="black" points="462.773,-426 398.773,-426 398.773,-390 462.773,-390 462.773,-426"/>
<text text-anchor="middle" x="430.773" y="-405.2" font-family="Courier,monospace" font-size="11.00">Session</text>
</g>
<!-- \\nicklas\\Session\\Session&#45;&gt;\\Anax\\Common\\ConfigureInterface -->
<g id="edge6" class="edge"><title>\\nicklas\\Session\\Session&#45;&gt;\\Anax\\Common\\ConfigureInterface</title>
<path fill="none" stroke="black" stroke-dasharray="1,5" d="M398.626,-398.246C388.395,-393.616 377.845,-387.057 370.773,-378 292.476,-277.727 398.958,-186.676 306.773,-99 300.818,-93.3366 294.111,-88.641 286.916,-84.7629"/>
<polygon fill="none" stroke="black" points="288.093,-81.4453 277.562,-80.2765 285.065,-87.7569 288.093,-81.4453"/>
</g>
<!-- \\nicklas\\App\\App -->
<g id="node14" class="node"><title>\\nicklas\\App\\App</title>
<polygon fill="none" stroke="black" points="457.773,-212 403.773,-212 403.773,-176 457.773,-176 457.773,-212"/>
<text text-anchor="middle" x="430.773" y="-191.2" font-family="Courier,monospace" font-size="11.00">App</text>
</g>
</g>
</svg>
